<svg xmlns="http://www.w3.org/2000/svg" xmlns:xlink="http://www.w3.org/1999/xlink" version="1.1" x="0px" y="0px" viewBox="0 0 60 50" enable-background="new 0 0 60 50" xml:space="preserve">
  <path d="M51,6.04c-1.65,0-3,1.35-3,3v13.18c-1.18-0.41-2.55-0.07-3.36,0.97l-5.41,6.9l-3.35,3.79c-2.5,2.67-3.77,5.53-3.88,8.75  v10.32c0,0.55,0.45,1,1,1s1-0.45,1-1l0-10.29c0.09-2.73,1.15-5.08,3.36-7.44l2.05-2.32c0.14-0.06,0.27-0.15,0.37-0.28l6.44-8.21  c0.16-0.21,0.4-0.35,0.66-0.38c0.26-0.03,0.53,0.04,0.74,0.2c0.22,0.17,0.34,0.41,0.38,0.66v0.04c0.02,0.24-0.04,0.5-0.2,0.7  l-6.44,8.2c-0.34,0.43-0.27,1.06,0.17,1.4c0.18,0.14,0.4,0.21,0.62,0.21c0.3,0,0.59-0.13,0.79-0.38l6.44-8.21  c0.43-0.55,0.62-1.21,0.62-1.87c0-0.01,0-0.01,0-0.02V9.04c0-0.55,0.45-1,1-1s1,0.45,1,1v20.47c0,1.35-0.47,2.68-1.31,3.74  l-8.94,11.21C40.62,45.87,40,47.64,40,49.45v3.51c0,0.55,0.45,1,1,1s1-0.45,1-1v-3.51c0-1.35,0.47-2.68,1.31-3.74l8.94-11.21  c1.13-1.41,1.75-3.18,1.75-4.99V9.04C54,7.38,52.65,6.04,51,6.04z"/>
  <path d="M16.69,45.71c0.84,1.06,1.31,2.39,1.31,3.74v3.51c0,0.55,0.45,1,1,1s1-0.45,1-1v-3.51c0-1.81-0.62-3.58-1.75-4.99  L9.31,33.25C8.47,32.19,8,30.86,8,29.51V9.04c0-0.55,0.45-1,1-1s1,0.45,1,1v15.95c0,0.01,0.01,0.02,0.01,0.03  c-0.01,0.65,0.19,1.31,0.62,1.86l6.44,8.2c0.2,0.25,0.49,0.38,0.79,0.38c0.22,0,0.43-0.07,0.62-0.21c0.43-0.34,0.51-0.97,0.17-1.4  l-6.44-8.2c-0.16-0.21-0.23-0.46-0.2-0.72v-0.03c0.03-0.26,0.17-0.5,0.38-0.66c0.21-0.16,0.48-0.23,0.74-0.2  c0.26,0.03,0.5,0.17,0.67,0.38l6.44,8.2c0.1,0.13,0.23,0.22,0.37,0.28l2.07,2.34c2.19,2.34,3.25,4.7,3.34,7.39v10.32  c0,0.55,0.45,1,1,1s1-0.45,1-1l0-10.36c-0.11-3.19-1.38-6.04-3.86-8.7l-3.37-3.82l-5.41-6.89c-0.81-1.04-2.18-1.39-3.36-0.98V9.04  c0-1.65-1.35-3-3-3s-3,1.35-3,3v20.47c0,1.81,0.62,3.58,1.75,4.99L16.69,45.71z"/>
  <path d="M29.58,28.37c0.13,0.06,0.28,0.09,0.42,0.09s0.29-0.03,0.42-0.09C33.06,27.15,40,21.01,40,14.39c0-3.22-2.81-5.93-6.14-5.93  c-1.89,0-3.04,0.74-3.86,1.75c-0.82-1-1.97-1.75-3.86-1.75c-3.33,0-6.14,2.72-6.14,5.93C20,21.01,26.94,27.15,29.58,28.37z   M26.14,10.46c1.42,0,2.11,0.48,2.98,2.04c0.35,0.64,1.4,0.64,1.75,0c0.87-1.56,1.56-2.04,2.98-2.04c2.25,0,4.14,1.8,4.14,3.93  c0,5.09-5.36,10.43-8,11.94c-2.64-1.51-8-6.86-8-11.94C22,12.26,23.9,10.46,26.14,10.46z"/>
</svg>
